<svg width="24" height="24" viewBox="0 0 24 24" fill="none" xmlns="http://www.w3.org/2000/svg">
<path fill-rule="evenodd" clip-rule="evenodd" d="M14.385 15.446C13.0372 16.5229 11.3281 17.0429 9.60889 16.8991C7.88966 16.7552 6.29075 15.9586 5.14055 14.6727C3.99035 13.3869 3.37617 11.7094 3.42416 9.9848C3.47215 8.26024 4.17865 6.6195 5.39858 5.39958C6.6185 4.17965 8.25924 3.47315 9.9838 3.42516C11.7084 3.37717 13.3859 3.99135 14.6717 5.14155C15.9576 6.29175 16.7542 7.89066 16.8981 9.60989C17.0419 11.3291 16.5219 13.0382 15.445 14.386L20.601 19.541C20.6747 19.6097 20.7338 19.6925 20.7748 19.7845C20.8158 19.8765 20.8378 19.9758 20.8396 20.0765C20.8414 20.1772 20.8228 20.2772 20.7851 20.3706C20.7474 20.464 20.6913 20.5488 20.62 20.62C20.5488 20.6913 20.464 20.7474 20.3706 20.7851C20.2772 20.8228 20.1772 20.8414 20.0765 20.8396C19.9758 20.8378 19.8765 20.8158 19.7845 20.7748C19.6925 20.7338 19.6097 20.6747 19.541 20.601L14.385 15.446ZM6.459 13.884C5.72504 13.15 5.22516 12.2148 5.02252 11.1968C4.81988 10.1787 4.92358 9.12344 5.32052 8.1643C5.71745 7.20517 6.38981 6.38523 7.25262 5.8081C8.11542 5.23098 9.12995 4.92258 10.168 4.92189C11.206 4.92119 12.2209 5.22822 13.0845 5.80418C13.9481 6.38014 14.6216 7.19917 15.0198 8.15778C15.418 9.11638 15.5231 10.1715 15.3219 11.1898C15.1206 12.2082 14.622 13.144 13.889 13.879L13.884 13.884L13.879 13.888C12.8941 14.8706 11.5594 15.4221 10.1682 15.4214C8.77692 15.4206 7.44285 14.8677 6.459 13.884Z" fill="black" fill-opacity="0.5"/>
</svg>
