<svg width="14" height="14" viewBox="0 0 14 14" fill="none" xmlns="http://www.w3.org/2000/svg">
<path fill-rule="evenodd" clip-rule="evenodd" d="M8.39125 9.01017C7.60501 9.63837 6.60807 9.94168 5.60518 9.85779C4.6023 9.7739 3.6696 9.30919 2.99865 8.55909C2.3277 7.809 1.96943 6.83047 1.99743 5.82447C2.02542 4.81848 2.43755 3.86138 3.14917 3.14976C3.86079 2.43814 4.81789 2.02601 5.82388 1.99802C6.82988 1.97002 7.80841 2.32829 8.5585 2.99924C9.30859 3.67019 9.77331 4.60289 9.8572 5.60577C9.94108 6.60866 9.63778 7.6056 9.00958 8.39184L12.0172 11.3989C12.0602 11.439 12.0947 11.4873 12.1186 11.5409C12.1425 11.5946 12.1554 11.6525 12.1564 11.7113C12.1575 11.77 12.1467 11.8284 12.1247 11.8829C12.1026 11.9373 12.0699 11.9868 12.0284 12.0284C11.9868 12.0699 11.9373 12.1027 11.8828 12.1247C11.8284 12.1467 11.77 12.1575 11.7113 12.1564C11.6525 12.1554 11.5946 12.1425 11.5409 12.1186C11.4873 12.0947 11.439 12.0602 11.3989 12.0173L8.39125 9.01017ZM3.76775 8.09901C3.33961 7.67082 3.04801 7.12532 2.9298 6.53146C2.81159 5.93759 2.87209 5.32201 3.10363 4.76251C3.33518 4.20302 3.72739 3.72472 4.23069 3.38807C4.73399 3.05141 5.3258 2.87151 5.93131 2.87111C6.53683 2.8707 7.12888 3.0498 7.63263 3.38578C8.13639 3.72175 8.52924 4.19952 8.76154 4.75871C8.99384 5.31789 9.05516 5.93339 8.93775 6.52741C8.82035 7.12144 8.52948 7.66733 8.10191 8.09609L8.099 8.09901L8.09608 8.10134C7.52155 8.67454 6.743 8.99625 5.93143 8.99581C5.11987 8.99537 4.34166 8.67282 3.76775 8.09901Z" fill="black" fill-opacity="0.5"/>
</svg>
