<svg width="64" height="64" viewBox="0 0 64 64" fill="none" xmlns="http://www.w3.org/2000/svg">
<g filter="url(#filter0_d_22_135)">
<rect x="2" y="1" width="60" height="60" rx="21" fill="#0038FF" fill-opacity="0.5" shape-rendering="crispEdges"/>
<path fill-rule="evenodd" clip-rule="evenodd" d="M31.9998 31.496V35C30.9389 35 29.9215 34.5786 29.1714 33.8284C28.4212 33.0783 27.9998 32.0609 27.9998 31C27.9998 29.9391 28.4212 28.9217 29.1714 28.1716C29.9215 27.4214 30.9389 27 31.9998 27V31.496ZM31.9998 24.3333C30.2317 24.3333 28.536 25.0357 27.2858 26.286C26.0355 27.5362 25.3331 29.2319 25.3331 31C25.3331 32.7681 26.0355 34.4638 27.2858 35.7141C28.536 36.9643 30.2317 37.6667 31.9998 37.6667V45.6667C24.8371 45.6667 19.8371 42.072 16.6745 38.56C14.9502 36.6318 13.5049 34.4712 12.3811 32.1413C12.2892 31.9458 12.2012 31.7484 12.1171 31.5493L12.1011 31.512L12.0985 31.5013L12.0958 31.496C11.9682 31.1777 11.9682 30.8224 12.0958 30.504L12.2718 30.576C12.2125 30.5527 12.1538 30.5305 12.0958 30.504V30.4987L12.1011 30.488L12.1171 30.4507C12.1994 30.2504 12.2883 30.053 12.3838 29.8587C13.5078 27.5297 14.953 25.37 16.6771 23.4427C19.8345 19.928 24.8345 16.3333 31.9998 16.3333V24.3333ZM31.9998 27V35C33.0607 35 34.0781 34.5786 34.8282 33.8284C35.5784 33.0783 35.9998 32.0609 35.9998 31C35.9998 29.9391 35.5784 28.9217 34.8282 28.1716C34.0781 27.4214 33.0607 27 31.9998 27ZM31.9998 37.6667C33.7679 37.6667 35.4636 36.9643 36.7139 35.7141C37.9641 34.4638 38.6665 32.7681 38.6665 31C38.6665 29.2319 37.9641 27.5362 36.7139 26.286C35.4636 25.0357 33.7679 24.3333 31.9998 24.3333V16.3333C39.1625 16.3333 44.1625 19.928 47.3251 23.4427C49.0493 25.37 50.4946 27.5297 51.6185 29.8587C51.7104 30.0543 51.7984 30.2516 51.8825 30.4507L51.8958 30.488L51.9011 30.4987L51.9038 30.504C52.0314 30.8224 52.0314 31.1777 51.9038 31.496V31.5013L51.8958 31.512L51.8825 31.5493C51.8008 31.7499 51.7119 31.9473 51.6158 32.1413C50.4919 34.4703 49.0467 36.63 47.3225 38.5573C44.1651 42.0747 39.1651 45.6667 31.9998 45.6667V37.6667Z" fill="#0038FF"/>
</g>
<defs>
<filter id="filter0_d_22_135" x="0" y="0" width="64" height="64" filterUnits="userSpaceOnUse" color-interpolation-filters="sRGB">
<feFlood flood-opacity="0" result="BackgroundImageFix"/>
<feColorMatrix in="SourceAlpha" type="matrix" values="0 0 0 0 0 0 0 0 0 0 0 0 0 0 0 0 0 0 127 0" result="hardAlpha"/>
<feOffset dy="1"/>
<feGaussianBlur stdDeviation="1"/>
<feComposite in2="hardAlpha" operator="out"/>
<feColorMatrix type="matrix" values="0 0 0 0 0 0 0 0 0 0 0 0 0 0 0 0 0 0 0.2 0"/>
<feBlend mode="normal" in2="BackgroundImageFix" result="effect1_dropShadow_22_135"/>
<feBlend mode="normal" in="SourceGraphic" in2="effect1_dropShadow_22_135" result="shape"/>
</filter>
</defs>
</svg>
