<svg width="15" height="15" viewBox="0 0 15 15" fill="none" xmlns="http://www.w3.org/2000/svg">
<path d="M6.25 5V8.125C6.25 8.45652 6.3817 8.77446 6.61612 9.00888C6.85054 9.2433 7.16848 9.375 7.5 9.375C7.83152 9.375 8.14946 9.2433 8.38388 9.00888C8.6183 8.77446 8.75 8.45652 8.75 8.125V3.75C8.75 3.08696 8.48661 2.45107 8.01777 1.98223C7.54893 1.51339 6.91304 1.25 6.25 1.25C5.58696 1.25 4.95107 1.51339 4.48223 1.98223C4.01339 2.45107 3.75 3.08696 3.75 3.75V8.75C3.75 9.74456 4.14509 10.6984 4.84835 11.4017C5.55161 12.1049 6.50544 12.5 7.5 12.5C8.49456 12.5 9.44839 12.1049 10.1517 11.4017C10.8549 10.6984 11.25 9.74456 11.25 8.75V2.5" stroke="#7B7B7B" stroke-width="2" stroke-linecap="round" stroke-linejoin="round"/>
</svg>
