<svg width="15" height="15" viewBox="0 0 15 15" fill="none" xmlns="http://www.w3.org/2000/svg">
<path d="M7.05812 1.43313C7.17533 1.31596 7.33427 1.25014 7.5 1.25014C7.66573 1.25014 7.82467 1.31596 7.94187 1.43313L10.4419 3.93313C10.5557 4.05101 10.6187 4.20888 10.6173 4.37275C10.6159 4.53663 10.5501 4.69339 10.4343 4.80927C10.3184 4.92515 10.1616 4.99088 9.99775 4.9923C9.83387 4.99372 9.676 4.93073 9.55812 4.81688L8.125 3.38375V10C8.125 10.1658 8.05915 10.3247 7.94194 10.4419C7.82473 10.5592 7.66576 10.625 7.5 10.625C7.33424 10.625 7.17527 10.5592 7.05806 10.4419C6.94085 10.3247 6.875 10.1658 6.875 10V3.38375L5.44187 4.81688C5.324 4.93073 5.16612 4.99372 5.00225 4.9923C4.83838 4.99088 4.68162 4.92515 4.56574 4.80927C4.44986 4.69339 4.38413 4.53663 4.3827 4.37275C4.38128 4.20888 4.44428 4.05101 4.55812 3.93313L7.05812 1.43313ZM3.125 10.625C3.29076 10.625 3.44973 10.6909 3.56694 10.8081C3.68415 10.9253 3.75 11.0842 3.75 11.25V12.5H11.25V11.25C11.25 11.0842 11.3158 10.9253 11.4331 10.8081C11.5503 10.6909 11.7092 10.625 11.875 10.625C12.0408 10.625 12.1997 10.6909 12.3169 10.8081C12.4341 10.9253 12.5 11.0842 12.5 11.25V12.5C12.5 12.8315 12.3683 13.1495 12.1339 13.3839C11.8995 13.6183 11.5815 13.75 11.25 13.75H3.75C3.41848 13.75 3.10054 13.6183 2.86612 13.3839C2.6317 13.1495 2.5 12.8315 2.5 12.5V11.25C2.5 11.0842 2.56585 10.9253 2.68306 10.8081C2.80027 10.6909 2.95924 10.625 3.125 10.625Z" fill="#7B7B7B"/>
</svg>
